# xmcd
# 
# Track frame offsets:
#     150
#     17799
#     37039
#     52924
#     69409
#     87171
#     102498
#     121716
#     139470
#     154800
# 
# Disc length: 2298
# 
# Revision: 1
# Processed by: cddbd v1.5.2PL0 Copyright (c) Steve Scherf et al.
# Submitted via: fre:ac v1.0.27
# 
DISCID=8208f80a
DTITLE=サーカス - Circus2 New Horizon
DYEAR=1979
DGENRE=JPop
TTITLE0=01-ムーヴィング
TTITLE1=02-サルバドール紀行
TTITLE2=03-思い出のサーフ・シティー
TTITLE3=04-愛のキャンパス
TTITLE4=05-六月の花嫁
TTITLE5=06-アメリカン・フィーリング
TTITLE6=07-もっとエメラルド
TTITLE7=08-ヒッチハイク
TTITLE8=09-フライ・アウェイ
TTITLE9=10-夏の恋人
EXTD=Year:1979 アルバム名：ニュー・ホライズン
EXTT0=
EXTT1=
EXTT2=
EXTT3=
EXTT4=
EXTT5=
EXTT6=
EXTT7=
EXTT8=
EXTT9=
PLAYORDER=
